<?xml version="1.0" encoding="UTF-8" standalone="no"?>
<!-- Created with Inkscape (http://www.inkscape.org/) -->

<svg
   xmlns:dc="http://purl.org/dc/elements/1.1/"
   xmlns:cc="http://creativecommons.org/ns#"
   xmlns:rdf="http://www.w3.org/1999/02/22-rdf-syntax-ns#"
   xmlns:svg="http://www.w3.org/2000/svg"
   xmlns="http://www.w3.org/2000/svg"
   xmlns:sodipodi="http://sodipodi.sourceforge.net/DTD/sodipodi-0.dtd"
   xmlns:inkscape="http://www.inkscape.org/namespaces/inkscape"
   width="164.87805"
   height="156.7317"
   id="svg2"
   version="1.1"
   inkscape:version="0.47 r22583"
   sodipodi:docname="proposal-01.svg">
  <defs
     id="defs4">
    <marker
       inkscape:stockid="Arrow1Lstart"
       orient="auto"
       refY="0"
       refX="0"
       id="Arrow1Lstart"
       style="overflow:visible">
      <path
         id="path3635"
         d="M 0,0 5,-5 -12.5,0 5,5 0,0 z"
         style="fill-rule:evenodd;stroke:#000000;stroke-width:1pt;marker-start:none"
         transform="matrix(0.8,0,0,0.8,10,0)" />
    </marker>
    <inkscape:perspective
       sodipodi:type="inkscape:persp3d"
       inkscape:vp_x="0 : 526.18109 : 1"
       inkscape:vp_y="0 : 1000 : 0"
       inkscape:vp_z="744.09448 : 526.18109 : 1"
       inkscape:persp3d-origin="372.04724 : 350.78739 : 1"
       id="perspective10" />
    <inkscape:perspective
       id="perspective6114"
       inkscape:persp3d-origin="0.5 : 0.33333333 : 1"
       inkscape:vp_z="1 : 0.5 : 1"
       inkscape:vp_y="0 : 1000 : 0"
       inkscape:vp_x="0 : 0.5 : 1"
       sodipodi:type="inkscape:persp3d" />
    <inkscape:perspective
       id="perspective6114-1"
       inkscape:persp3d-origin="0.5 : 0.33333333 : 1"
       inkscape:vp_z="1 : 0.5 : 1"
       inkscape:vp_y="0 : 1000 : 0"
       inkscape:vp_x="0 : 0.5 : 1"
       sodipodi:type="inkscape:persp3d" />
    <inkscape:perspective
       id="perspective6114-6"
       inkscape:persp3d-origin="0.5 : 0.33333333 : 1"
       inkscape:vp_z="1 : 0.5 : 1"
       inkscape:vp_y="0 : 1000 : 0"
       inkscape:vp_x="0 : 0.5 : 1"
       sodipodi:type="inkscape:persp3d" />
    <inkscape:perspective
       id="perspective6114-5"
       inkscape:persp3d-origin="0.5 : 0.33333333 : 1"
       inkscape:vp_z="1 : 0.5 : 1"
       inkscape:vp_y="0 : 1000 : 0"
       inkscape:vp_x="0 : 0.5 : 1"
       sodipodi:type="inkscape:persp3d" />
    <inkscape:perspective
       id="perspective6114-66"
       inkscape:persp3d-origin="0.5 : 0.33333333 : 1"
       inkscape:vp_z="1 : 0.5 : 1"
       inkscape:vp_y="0 : 1000 : 0"
       inkscape:vp_x="0 : 0.5 : 1"
       sodipodi:type="inkscape:persp3d" />
    <inkscape:perspective
       id="perspective6114-59"
       inkscape:persp3d-origin="0.5 : 0.33333333 : 1"
       inkscape:vp_z="1 : 0.5 : 1"
       inkscape:vp_y="0 : 1000 : 0"
       inkscape:vp_x="0 : 0.5 : 1"
       sodipodi:type="inkscape:persp3d" />
    <inkscape:perspective
       id="perspective6114-0"
       inkscape:persp3d-origin="0.5 : 0.33333333 : 1"
       inkscape:vp_z="1 : 0.5 : 1"
       inkscape:vp_y="0 : 1000 : 0"
       inkscape:vp_x="0 : 0.5 : 1"
       sodipodi:type="inkscape:persp3d" />
    <inkscape:perspective
       id="perspective6114-3"
       inkscape:persp3d-origin="0.5 : 0.33333333 : 1"
       inkscape:vp_z="1 : 0.5 : 1"
       inkscape:vp_y="0 : 1000 : 0"
       inkscape:vp_x="0 : 0.5 : 1"
       sodipodi:type="inkscape:persp3d" />
    <inkscape:perspective
       id="perspective6199"
       inkscape:persp3d-origin="0.5 : 0.33333333 : 1"
       inkscape:vp_z="1 : 0.5 : 1"
       inkscape:vp_y="0 : 1000 : 0"
       inkscape:vp_x="0 : 0.5 : 1"
       sodipodi:type="inkscape:persp3d" />
    <inkscape:perspective
       id="perspective6199-9"
       inkscape:persp3d-origin="0.5 : 0.33333333 : 1"
       inkscape:vp_z="1 : 0.5 : 1"
       inkscape:vp_y="0 : 1000 : 0"
       inkscape:vp_x="0 : 0.5 : 1"
       sodipodi:type="inkscape:persp3d" />
    <inkscape:perspective
       id="perspective6199-6"
       inkscape:persp3d-origin="0.5 : 0.33333333 : 1"
       inkscape:vp_z="1 : 0.5 : 1"
       inkscape:vp_y="0 : 1000 : 0"
       inkscape:vp_x="0 : 0.5 : 1"
       sodipodi:type="inkscape:persp3d" />
    <inkscape:perspective
       id="perspective6199-3"
       inkscape:persp3d-origin="0.5 : 0.33333333 : 1"
       inkscape:vp_z="1 : 0.5 : 1"
       inkscape:vp_y="0 : 1000 : 0"
       inkscape:vp_x="0 : 0.5 : 1"
       sodipodi:type="inkscape:persp3d" />
    <inkscape:perspective
       id="perspective6199-4"
       inkscape:persp3d-origin="0.5 : 0.33333333 : 1"
       inkscape:vp_z="1 : 0.5 : 1"
       inkscape:vp_y="0 : 1000 : 0"
       inkscape:vp_x="0 : 0.5 : 1"
       sodipodi:type="inkscape:persp3d" />
    <inkscape:perspective
       id="perspective6257"
       inkscape:persp3d-origin="0.5 : 0.33333333 : 1"
       inkscape:vp_z="1 : 0.5 : 1"
       inkscape:vp_y="0 : 1000 : 0"
       inkscape:vp_x="0 : 0.5 : 1"
       sodipodi:type="inkscape:persp3d" />
    <inkscape:perspective
       id="perspective6257-3"
       inkscape:persp3d-origin="0.5 : 0.33333333 : 1"
       inkscape:vp_z="1 : 0.5 : 1"
       inkscape:vp_y="0 : 1000 : 0"
       inkscape:vp_x="0 : 0.5 : 1"
       sodipodi:type="inkscape:persp3d" />
    <inkscape:perspective
       id="perspective6257-4"
       inkscape:persp3d-origin="0.5 : 0.33333333 : 1"
       inkscape:vp_z="1 : 0.5 : 1"
       inkscape:vp_y="0 : 1000 : 0"
       inkscape:vp_x="0 : 0.5 : 1"
       sodipodi:type="inkscape:persp3d" />
    <inkscape:perspective
       id="perspective6257-2"
       inkscape:persp3d-origin="0.5 : 0.33333333 : 1"
       inkscape:vp_z="1 : 0.5 : 1"
       inkscape:vp_y="0 : 1000 : 0"
       inkscape:vp_x="0 : 0.5 : 1"
       sodipodi:type="inkscape:persp3d" />
    <inkscape:perspective
       id="perspective6257-0"
       inkscape:persp3d-origin="0.5 : 0.33333333 : 1"
       inkscape:vp_z="1 : 0.5 : 1"
       inkscape:vp_y="0 : 1000 : 0"
       inkscape:vp_x="0 : 0.5 : 1"
       sodipodi:type="inkscape:persp3d" />
    <inkscape:perspective
       id="perspective6257-7"
       inkscape:persp3d-origin="0.5 : 0.33333333 : 1"
       inkscape:vp_z="1 : 0.5 : 1"
       inkscape:vp_y="0 : 1000 : 0"
       inkscape:vp_x="0 : 0.5 : 1"
       sodipodi:type="inkscape:persp3d" />
    <inkscape:perspective
       id="perspective6257-8"
       inkscape:persp3d-origin="0.5 : 0.33333333 : 1"
       inkscape:vp_z="1 : 0.5 : 1"
       inkscape:vp_y="0 : 1000 : 0"
       inkscape:vp_x="0 : 0.5 : 1"
       sodipodi:type="inkscape:persp3d" />
    <inkscape:perspective
       id="perspective6333"
       inkscape:persp3d-origin="0.5 : 0.33333333 : 1"
       inkscape:vp_z="1 : 0.5 : 1"
       inkscape:vp_y="0 : 1000 : 0"
       inkscape:vp_x="0 : 0.5 : 1"
       sodipodi:type="inkscape:persp3d" />
    <inkscape:perspective
       id="perspective6333-8"
       inkscape:persp3d-origin="0.5 : 0.33333333 : 1"
       inkscape:vp_z="1 : 0.5 : 1"
       inkscape:vp_y="0 : 1000 : 0"
       inkscape:vp_x="0 : 0.5 : 1"
       sodipodi:type="inkscape:persp3d" />
    <inkscape:perspective
       id="perspective6333-1"
       inkscape:persp3d-origin="0.5 : 0.33333333 : 1"
       inkscape:vp_z="1 : 0.5 : 1"
       inkscape:vp_y="0 : 1000 : 0"
       inkscape:vp_x="0 : 0.5 : 1"
       sodipodi:type="inkscape:persp3d" />
    <inkscape:perspective
       id="perspective6333-4"
       inkscape:persp3d-origin="0.5 : 0.33333333 : 1"
       inkscape:vp_z="1 : 0.5 : 1"
       inkscape:vp_y="0 : 1000 : 0"
       inkscape:vp_x="0 : 0.5 : 1"
       sodipodi:type="inkscape:persp3d" />
    <inkscape:perspective
       id="perspective6382"
       inkscape:persp3d-origin="0.5 : 0.33333333 : 1"
       inkscape:vp_z="1 : 0.5 : 1"
       inkscape:vp_y="0 : 1000 : 0"
       inkscape:vp_x="0 : 0.5 : 1"
       sodipodi:type="inkscape:persp3d" />
    <inkscape:perspective
       id="perspective6382-6"
       inkscape:persp3d-origin="0.5 : 0.33333333 : 1"
       inkscape:vp_z="1 : 0.5 : 1"
       inkscape:vp_y="0 : 1000 : 0"
       inkscape:vp_x="0 : 0.5 : 1"
       sodipodi:type="inkscape:persp3d" />
    <inkscape:perspective
       id="perspective6435"
       inkscape:persp3d-origin="0.5 : 0.33333333 : 1"
       inkscape:vp_z="1 : 0.5 : 1"
       inkscape:vp_y="0 : 1000 : 0"
       inkscape:vp_x="0 : 0.5 : 1"
       sodipodi:type="inkscape:persp3d" />
    <inkscape:perspective
       id="perspective6457"
       inkscape:persp3d-origin="0.5 : 0.33333333 : 1"
       inkscape:vp_z="1 : 0.5 : 1"
       inkscape:vp_y="0 : 1000 : 0"
       inkscape:vp_x="0 : 0.5 : 1"
       sodipodi:type="inkscape:persp3d" />
    <inkscape:perspective
       id="perspective6457-3"
       inkscape:persp3d-origin="0.5 : 0.33333333 : 1"
       inkscape:vp_z="1 : 0.5 : 1"
       inkscape:vp_y="0 : 1000 : 0"
       inkscape:vp_x="0 : 0.5 : 1"
       sodipodi:type="inkscape:persp3d" />
    <inkscape:perspective
       id="perspective6457-2"
       inkscape:persp3d-origin="0.5 : 0.33333333 : 1"
       inkscape:vp_z="1 : 0.5 : 1"
       inkscape:vp_y="0 : 1000 : 0"
       inkscape:vp_x="0 : 0.5 : 1"
       sodipodi:type="inkscape:persp3d" />
    <inkscape:perspective
       id="perspective6497"
       inkscape:persp3d-origin="0.5 : 0.33333333 : 1"
       inkscape:vp_z="1 : 0.5 : 1"
       inkscape:vp_y="0 : 1000 : 0"
       inkscape:vp_x="0 : 0.5 : 1"
       sodipodi:type="inkscape:persp3d" />
    <inkscape:perspective
       id="perspective6497-4"
       inkscape:persp3d-origin="0.5 : 0.33333333 : 1"
       inkscape:vp_z="1 : 0.5 : 1"
       inkscape:vp_y="0 : 1000 : 0"
       inkscape:vp_x="0 : 0.5 : 1"
       sodipodi:type="inkscape:persp3d" />
    <inkscape:perspective
       id="perspective6497-2"
       inkscape:persp3d-origin="0.5 : 0.33333333 : 1"
       inkscape:vp_z="1 : 0.5 : 1"
       inkscape:vp_y="0 : 1000 : 0"
       inkscape:vp_x="0 : 0.5 : 1"
       sodipodi:type="inkscape:persp3d" />
    <inkscape:perspective
       id="perspective6537"
       inkscape:persp3d-origin="0.5 : 0.33333333 : 1"
       inkscape:vp_z="1 : 0.5 : 1"
       inkscape:vp_y="0 : 1000 : 0"
       inkscape:vp_x="0 : 0.5 : 1"
       sodipodi:type="inkscape:persp3d" />
    <inkscape:perspective
       id="perspective6537-6"
       inkscape:persp3d-origin="0.5 : 0.33333333 : 1"
       inkscape:vp_z="1 : 0.5 : 1"
       inkscape:vp_y="0 : 1000 : 0"
       inkscape:vp_x="0 : 0.5 : 1"
       sodipodi:type="inkscape:persp3d" />
    <inkscape:perspective
       id="perspective6537-4"
       inkscape:persp3d-origin="0.5 : 0.33333333 : 1"
       inkscape:vp_z="1 : 0.5 : 1"
       inkscape:vp_y="0 : 1000 : 0"
       inkscape:vp_x="0 : 0.5 : 1"
       sodipodi:type="inkscape:persp3d" />
    <inkscape:perspective
       id="perspective6586"
       inkscape:persp3d-origin="0.5 : 0.33333333 : 1"
       inkscape:vp_z="1 : 0.5 : 1"
       inkscape:vp_y="0 : 1000 : 0"
       inkscape:vp_x="0 : 0.5 : 1"
       sodipodi:type="inkscape:persp3d" />
    <inkscape:perspective
       id="perspective6586-5"
       inkscape:persp3d-origin="0.5 : 0.33333333 : 1"
       inkscape:vp_z="1 : 0.5 : 1"
       inkscape:vp_y="0 : 1000 : 0"
       inkscape:vp_x="0 : 0.5 : 1"
       sodipodi:type="inkscape:persp3d" />
    <inkscape:perspective
       id="perspective6626"
       inkscape:persp3d-origin="0.5 : 0.33333333 : 1"
       inkscape:vp_z="1 : 0.5 : 1"
       inkscape:vp_y="0 : 1000 : 0"
       inkscape:vp_x="0 : 0.5 : 1"
       sodipodi:type="inkscape:persp3d" />
  </defs>
  <sodipodi:namedview
     id="base"
     pagecolor="#ffffff"
     bordercolor="#666666"
     borderopacity="1.0"
     inkscape:pageopacity="0.0"
     inkscape:pageshadow="2"
     inkscape:zoom="1.52"
     inkscape:cx="152.0857"
     inkscape:cy="78.768299"
     inkscape:document-units="px"
     inkscape:current-layer="layer1"
     showgrid="false"
     inkscape:window-width="1920"
     inkscape:window-height="1001"
     inkscape:window-x="0"
     inkscape:window-y="25"
     inkscape:window-maximized="1" />
  <metadata
     id="metadata7">
    <rdf:RDF>
      <cc:Work
         rdf:about="">
        <dc:format>image/svg+xml</dc:format>
        <dc:type
           rdf:resource="http://purl.org/dc/dcmitype/StillImage" />
        <dc:title></dc:title>
      </cc:Work>
    </rdf:RDF>
  </metadata>
  <g
     inkscape:label="Layer 1"
     inkscape:groupmode="layer"
     id="layer1"
     transform="translate(-108.4878,-253.19145)">
    <path
       sodipodi:type="arc"
       style="fill:#000000;fill-opacity:0.10096154;stroke:none"
       id="path6104-2"
       sodipodi:cx="164.28572"
       sodipodi:cy="280.93362"
       sodipodi:rx="58.57143"
       sodipodi:ry="45.714287"
       d="m 222.85715,280.93362 c 0,25.24731 -26.22332,45.71429 -58.57143,45.71429 -32.34811,0 -58.57143,-20.46698 -58.57143,-45.71429 0,-25.2473 26.22332,-45.71428 58.57143,-45.71428 32.34811,0 58.57143,20.46698 58.57143,45.71428 z"
       transform="matrix(0.1707317,0,0,0.21874999,215.75609,329.49332)" />
    <path
       sodipodi:type="arc"
       style="fill:#000000;fill-opacity:1;stroke:none"
       id="path6104-1"
       sodipodi:cx="164.28572"
       sodipodi:cy="280.93362"
       sodipodi:rx="58.57143"
       sodipodi:ry="45.714287"
       d="m 222.85715,280.93362 c 0,25.24731 -26.22332,45.71429 -58.57143,45.71429 -32.34811,0 -58.57143,-20.46698 -58.57143,-45.71429 0,-25.2473 26.22332,-45.71428 58.57143,-45.71428 32.34811,0 58.57143,20.46698 58.57143,45.71428 z"
       transform="matrix(0.1707317,0,0,0.21874999,153.37998,270.23016)" />
    <path
       sodipodi:type="arc"
       style="fill:#000000;fill-opacity:0.10096154;stroke:none"
       id="path6104-5"
       sodipodi:cx="164.28572"
       sodipodi:cy="280.93362"
       sodipodi:rx="58.57143"
       sodipodi:ry="45.714287"
       d="m 222.85715,280.93362 c 0,25.24731 -26.22332,45.71429 -58.57143,45.71429 -32.34811,0 -58.57143,-20.46698 -58.57143,-45.71429 0,-25.2473 26.22332,-45.71428 58.57143,-45.71428 32.34811,0 58.57143,20.46698 58.57143,45.71428 z"
       transform="matrix(0.1707317,0,0,0.21874999,182.92683,218.71283)" />
    <path
       sodipodi:type="arc"
       style="fill:#000000;fill-opacity:0.10096154;stroke:none"
       id="path6104-9"
       sodipodi:cx="164.28572"
       sodipodi:cy="280.93362"
       sodipodi:rx="58.57143"
       sodipodi:ry="45.714287"
       d="m 222.85715,280.93362 c 0,25.24731 -26.22332,45.71429 -58.57143,45.71429 -32.34811,0 -58.57143,-20.46698 -58.57143,-45.71429 0,-25.2473 26.22332,-45.71428 58.57143,-45.71428 32.34811,0 58.57143,20.46698 58.57143,45.71428 z"
       transform="matrix(0.1707317,0,0,0.21874999,152.43902,336.02991)" />
    <path
       sodipodi:type="arc"
       style="fill:#000000;fill-opacity:0.10096154;stroke:none"
       id="path6104-26"
       sodipodi:cx="164.28572"
       sodipodi:cy="280.93362"
       sodipodi:rx="58.57143"
       sodipodi:ry="45.714287"
       d="m 222.85715,280.93362 c 0,25.24731 -26.22332,45.71429 -58.57143,45.71429 -32.34811,0 -58.57143,-20.46698 -58.57143,-45.71429 0,-25.2473 26.22332,-45.71428 58.57143,-45.71428 32.34811,0 58.57143,20.46698 58.57143,45.71428 z"
       transform="matrix(0.1707317,0,0,0.21874999,90.43902,299.88356)" />
    <path
       sodipodi:type="arc"
       style="fill:#000000;fill-opacity:0.10096154;stroke:none"
       id="path6104-25"
       sodipodi:cx="164.28572"
       sodipodi:cy="280.93362"
       sodipodi:rx="58.57143"
       sodipodi:ry="45.714287"
       d="m 222.85715,280.93362 c 0,25.24731 -26.22332,45.71429 -58.57143,45.71429 -32.34811,0 -58.57143,-20.46698 -58.57143,-45.71429 0,-25.2473 26.22332,-45.71428 58.57143,-45.71428 32.34811,0 58.57143,20.46698 58.57143,45.71428 z"
       transform="matrix(0.1707317,0,0,0.21874999,196,289.34698)" />
    <path
       sodipodi:type="arc"
       style="fill:#000000;fill-opacity:0.28846154;stroke:none"
       id="path6104-0"
       sodipodi:cx="164.28572"
       sodipodi:cy="280.93362"
       sodipodi:rx="58.57143"
       sodipodi:ry="45.714287"
       d="m 222.85715,280.93362 c 0,25.24731 -26.22332,45.71429 -58.57143,45.71429 -32.34811,0 -58.57143,-20.46698 -58.57143,-45.71429 0,-25.2473 26.22332,-45.71428 58.57143,-45.71428 32.34811,0 58.57143,20.46698 58.57143,45.71428 z"
       transform="matrix(0.1707317,0,0,0.21874999,189.4724,263.81168)" />
    <path
       sodipodi:type="arc"
       style="fill:#000000;fill-opacity:0.28846154;stroke:none"
       id="path6104-0-3"
       sodipodi:cx="164.28572"
       sodipodi:cy="280.93362"
       sodipodi:rx="58.57143"
       sodipodi:ry="45.714287"
       d="m 222.85715,280.93362 c 0,25.24731 -26.22332,45.71429 -58.57143,45.71429 -32.34811,0 -58.57143,-20.46698 -58.57143,-45.71429 0,-25.2473 26.22332,-45.71428 58.57143,-45.71428 32.34811,0 58.57143,20.46698 58.57143,45.71428 z"
       transform="matrix(0.1707317,0,0,0.21874999,166.82927,298.66405)" />
    <path
       sodipodi:type="arc"
       style="fill:#000000;fill-opacity:0.28846154;stroke:none"
       id="path6104-0-6"
       sodipodi:cx="164.28572"
       sodipodi:cy="280.93362"
       sodipodi:rx="58.57143"
       sodipodi:ry="45.714287"
       d="m 222.85715,280.93362 c 0,25.24731 -26.22332,45.71429 -58.57143,45.71429 -32.34811,0 -58.57143,-20.46698 -58.57143,-45.71429 0,-25.2473 26.22332,-45.71428 58.57143,-45.71428 32.34811,0 58.57143,20.46698 58.57143,45.71428 z"
       transform="matrix(0.1707317,0,0,0.21874999,230.63414,297.88356)" />
    <path
       sodipodi:type="arc"
       style="fill:#000000;fill-opacity:0.28846154;stroke:none"
       id="path6104-0-31"
       sodipodi:cx="164.28572"
       sodipodi:cy="280.93362"
       sodipodi:rx="58.57143"
       sodipodi:ry="45.714287"
       d="m 222.85715,280.93362 c 0,25.24731 -26.22332,45.71429 -58.57143,45.71429 -32.34811,0 -58.57143,-20.46698 -58.57143,-45.71429 0,-25.2473 26.22332,-45.71428 58.57143,-45.71428 32.34811,0 58.57143,20.46698 58.57143,45.71428 z"
       transform="matrix(0.1707317,0,0,0.21874999,100.09756,274.27381)" />
    <path
       sodipodi:type="arc"
       style="fill:#000000;fill-opacity:0.28846154;stroke:none"
       id="path6104-0-5"
       sodipodi:cx="164.28572"
       sodipodi:cy="280.93362"
       sodipodi:rx="58.57143"
       sodipodi:ry="45.714287"
       d="m 222.85715,280.93362 c 0,25.24731 -26.22332,45.71429 -58.57143,45.71429 -32.34811,0 -58.57143,-20.46698 -58.57143,-45.71429 0,-25.2473 26.22332,-45.71428 58.57143,-45.71428 32.34811,0 58.57143,20.46698 58.57143,45.71428 z"
       transform="matrix(0.1707317,0,0,0.21874999,126.04878,332.37137)" />
    <path
       sodipodi:type="arc"
       style="fill:#000000;fill-opacity:0.3942308;stroke:none"
       id="path6104-0-38"
       sodipodi:cx="164.28572"
       sodipodi:cy="280.93362"
       sodipodi:rx="58.57143"
       sodipodi:ry="45.714287"
       d="m 222.85715,280.93362 c 0,25.24731 -26.22332,45.71429 -58.57143,45.71429 -32.34811,0 -58.57143,-20.46698 -58.57143,-45.71429 0,-25.2473 26.22332,-45.71428 58.57143,-45.71428 32.34811,0 58.57143,20.46698 58.57143,45.71428 z"
       transform="matrix(0.1707317,0,0,0.21874999,170.71695,250.43812)" />
    <path
       sodipodi:type="arc"
       style="fill:#000000;fill-opacity:0.3942308;stroke:none"
       id="path6104-0-38-7"
       sodipodi:cx="164.28572"
       sodipodi:cy="280.93362"
       sodipodi:rx="58.57143"
       sodipodi:ry="45.714287"
       d="m 222.85715,280.93362 c 0,25.24731 -26.22332,45.71429 -58.57143,45.71429 -32.34811,0 -58.57143,-20.46698 -58.57143,-45.71429 0,-25.2473 26.22332,-45.71428 58.57143,-45.71428 32.34811,0 58.57143,20.46698 58.57143,45.71428 z"
       transform="matrix(0.1707317,0,0,0.21874999,153.65854,317.73722)" />
    <path
       sodipodi:type="arc"
       style="fill:#000000;fill-opacity:0.3942308;stroke:none"
       id="path6104-0-38-0"
       sodipodi:cx="164.28572"
       sodipodi:cy="280.93362"
       sodipodi:rx="58.57143"
       sodipodi:ry="45.714287"
       d="m 222.85715,280.93362 c 0,25.24731 -26.22332,45.71429 -58.57143,45.71429 -32.34811,0 -58.57143,-20.46698 -58.57143,-45.71429 0,-25.2473 26.22332,-45.71428 58.57143,-45.71428 32.34811,0 58.57143,20.46698 58.57143,45.71428 z"
       transform="matrix(0.1707317,0,0,0.21874999,146,213.2982)" />
    <path
       sodipodi:type="arc"
       style="fill:#000000;fill-opacity:0.3942308;stroke:none"
       id="path6104-0-38-8"
       sodipodi:cx="164.28572"
       sodipodi:cy="280.93362"
       sodipodi:rx="58.57143"
       sodipodi:ry="45.714287"
       d="m 222.85715,280.93362 c 0,25.24731 -26.22332,45.71429 -58.57143,45.71429 -32.34811,0 -58.57143,-20.46698 -58.57143,-45.71429 0,-25.2473 26.22332,-45.71428 58.57143,-45.71428 32.34811,0 58.57143,20.46698 58.57143,45.71428 z"
       transform="matrix(0.1707317,0,0,0.21874999,114.63415,250.66405)" />
    <path
       sodipodi:type="arc"
       style="fill:#000000;fill-opacity:0.3942308;stroke:none"
       id="path6104-0-38-2"
       sodipodi:cx="164.28572"
       sodipodi:cy="280.93362"
       sodipodi:rx="58.57143"
       sodipodi:ry="45.714287"
       d="m 222.85715,280.93362 c 0,25.24731 -26.22332,45.71429 -58.57143,45.71429 -32.34811,0 -58.57143,-20.46698 -58.57143,-45.71429 0,-25.2473 26.22332,-45.71428 58.57143,-45.71428 32.34811,0 58.57143,20.46698 58.57143,45.71428 z"
       transform="matrix(0.1707317,0,0,0.21874999,106.09756,318.95674)" />
    <path
       sodipodi:type="arc"
       style="fill:#000000;fill-opacity:0.3942308;stroke:none"
       id="path6104-0-38-92"
       sodipodi:cx="164.28572"
       sodipodi:cy="280.93362"
       sodipodi:rx="58.57143"
       sodipodi:ry="45.714287"
       d="m 222.85715,280.93362 c 0,25.24731 -26.22332,45.71429 -58.57143,45.71429 -32.34811,0 -58.57143,-20.46698 -58.57143,-45.71429 0,-25.2473 26.22332,-45.71428 58.57143,-45.71428 32.34811,0 58.57143,20.46698 58.57143,45.71428 z"
       transform="matrix(0.1707317,0,0,0.21874999,195.02439,336.17625)" />
    <path
       sodipodi:type="arc"
       style="fill:#000000;fill-opacity:0.51442309;stroke:none"
       id="path6104-0-38-5"
       sodipodi:cx="164.28572"
       sodipodi:cy="280.93362"
       sodipodi:rx="58.57143"
       sodipodi:ry="45.714287"
       d="m 222.85715,280.93362 c 0,25.24731 -26.22332,45.71429 -58.57143,45.71429 -32.34811,0 -58.57143,-20.46698 -58.57143,-45.71429 0,-25.2473 26.22332,-45.71428 58.57143,-45.71428 32.34811,0 58.57143,20.46698 58.57143,45.71428 z"
       transform="matrix(0.1707317,0,0,0.21874999,209.7561,257.63966)" />
    <path
       sodipodi:type="arc"
       style="fill:#000000;fill-opacity:0.51442309;stroke:none"
       id="path6104-0-38-5-1"
       sodipodi:cx="164.28572"
       sodipodi:cy="280.93362"
       sodipodi:rx="58.57143"
       sodipodi:ry="45.714287"
       d="m 222.85715,280.93362 c 0,25.24731 -26.22332,45.71429 -58.57143,45.71429 -32.34811,0 -58.57143,-20.46698 -58.57143,-45.71429 0,-25.2473 26.22332,-45.71428 58.57143,-45.71428 32.34811,0 58.57143,20.46698 58.57143,45.71428 z"
       transform="matrix(0.1707317,0,0,0.21874999,128.43517,270.22888)" />
    <path
       sodipodi:type="arc"
       style="fill:#000000;fill-opacity:0.51442309;stroke:none"
       id="path6104-0-38-5-13"
       sodipodi:cx="164.28572"
       sodipodi:cy="280.93362"
       sodipodi:rx="58.57143"
       sodipodi:ry="45.714287"
       d="m 222.85715,280.93362 c 0,25.24731 -26.22332,45.71429 -58.57143,45.71429 -32.34811,0 -58.57143,-20.46698 -58.57143,-45.71429 0,-25.2473 26.22332,-45.71428 58.57143,-45.71428 32.34811,0 58.57143,20.46698 58.57143,45.71428 z"
       transform="matrix(0.1707317,0,0,0.21874999,173.17073,338.46893)" />
    <path
       sodipodi:type="arc"
       style="fill:#000000;fill-opacity:0.63942309;stroke:none"
       id="path6104-0-38-5-3-7"
       sodipodi:cx="164.28572"
       sodipodi:cy="280.93362"
       sodipodi:rx="58.57143"
       sodipodi:ry="45.714287"
       d="m 222.85715,280.93362 c 0,25.24731 -26.22332,45.71429 -58.57143,45.71429 -32.34811,0 -58.57143,-20.46698 -58.57143,-45.71429 0,-25.2473 26.22332,-45.71428 58.57143,-45.71428 32.34811,0 58.57143,20.46698 58.57143,45.71428 z"
       transform="matrix(0.1707317,0,0,0.21874999,161.75738,229.19807)" />
    <path
       sodipodi:type="arc"
       style="fill:#920000;fill-opacity:0.69230772;stroke:none"
       id="path6104-2-2"
       sodipodi:cx="164.28572"
       sodipodi:cy="280.93362"
       sodipodi:rx="58.57143"
       sodipodi:ry="45.714287"
       d="m 222.85715,280.93362 c 0,25.24731 -26.22332,45.71429 -58.57143,45.71429 -32.34811,0 -58.57143,-20.46698 -58.57143,-45.71429 0,-25.2473 26.22332,-45.71428 58.57143,-45.71428 32.34811,0 58.57143,20.46698 58.57143,45.71428 z"
       transform="matrix(0.1707317,0,0,0.21874999,206.78049,310.37137)" />
    <path
       sodipodi:type="arc"
       style="fill:#920000;fill-opacity:0.69230772;stroke:none"
       id="path6104-2-2-4"
       sodipodi:cx="164.28572"
       sodipodi:cy="280.93362"
       sodipodi:rx="58.57143"
       sodipodi:ry="45.714287"
       d="m 222.85715,280.93362 c 0,25.24731 -26.22332,45.71429 -58.57143,45.71429 -32.34811,0 -58.57143,-20.46698 -58.57143,-45.71429 0,-25.2473 26.22332,-45.71428 58.57143,-45.71428 32.34811,0 58.57143,20.46698 58.57143,45.71428 z"
       transform="matrix(0.1707317,0,0,0.21874999,131.70732,306.76161)" />
    <path
       sodipodi:type="arc"
       style="fill:#920000;fill-opacity:0.69230772;stroke:none"
       id="path6104-2-2-5"
       sodipodi:cx="164.28572"
       sodipodi:cy="280.93362"
       sodipodi:rx="58.57143"
       sodipodi:ry="45.714287"
       d="m 222.85715,280.93362 c 0,25.24731 -26.22332,45.71429 -58.57143,45.71429 -32.34811,0 -58.57143,-20.46698 -58.57143,-45.71429 0,-25.2473 26.22332,-45.71428 58.57143,-45.71428 32.34811,0 58.57143,20.46698 58.57143,45.71428 z"
       transform="matrix(0.1707317,0,0,0.21874999,144.67523,248.33157)" />
    <path
       sodipodi:type="arc"
       style="fill:#009a00;fill-opacity:0.69230772;stroke:none"
       id="path6104-2-2-56"
       sodipodi:cx="164.28572"
       sodipodi:cy="280.93362"
       sodipodi:rx="58.57143"
       sodipodi:ry="45.714287"
       d="m 222.85715,280.93362 c 0,25.24731 -26.22332,45.71429 -58.57143,45.71429 -32.34811,0 -58.57143,-20.46698 -58.57143,-45.71429 0,-25.2473 26.22332,-45.71428 58.57143,-45.71428 32.34811,0 58.57143,20.46698 58.57143,45.71428 z"
       transform="matrix(0.1707317,0,0,0.21874999,112.97561,293.786)" />
    <path
       sodipodi:type="arc"
       style="fill:#009a00;fill-opacity:0.69230772;stroke:none"
       id="path6104-2-2-56-2"
       sodipodi:cx="164.28572"
       sodipodi:cy="280.93362"
       sodipodi:rx="58.57143"
       sodipodi:ry="45.714287"
       d="m 222.85715,280.93362 c 0,25.24731 -26.22332,45.71429 -58.57143,45.71429 -32.34811,0 -58.57143,-20.46698 -58.57143,-45.71429 0,-25.2473 26.22332,-45.71428 58.57143,-45.71428 32.34811,0 58.57143,20.46698 58.57143,45.71428 z"
       transform="matrix(0.1707317,0,0,0.21874999,182.58537,314.66405)" />
    <path
       sodipodi:type="arc"
       style="fill:#009a00;fill-opacity:0.69230772;stroke:none"
       id="path6104-2-2-56-7"
       sodipodi:cx="164.28572"
       sodipodi:cy="280.93362"
       sodipodi:rx="58.57143"
       sodipodi:ry="45.714287"
       d="m 222.85715,280.93362 c 0,25.24731 -26.22332,45.71429 -58.57143,45.71429 -32.34811,0 -58.57143,-20.46698 -58.57143,-45.71429 0,-25.2473 26.22332,-45.71428 58.57143,-45.71428 32.34811,0 58.57143,20.46698 58.57143,45.71428 z"
       transform="matrix(0.1707317,0,0,0.21874999,197.12195,236.81039)" />
    <path
       sodipodi:type="arc"
       style="fill:#0000ba;fill-opacity:0.69230772;stroke:none"
       id="path6104-2-2-56-4"
       sodipodi:cx="164.28572"
       sodipodi:cy="280.93362"
       sodipodi:rx="58.57143"
       sodipodi:ry="45.714287"
       d="m 222.85715,280.93362 c 0,25.24731 -26.22332,45.71429 -58.57143,45.71429 -32.34811,0 -58.57143,-20.46698 -58.57143,-45.71429 0,-25.2473 26.22332,-45.71428 58.57143,-45.71428 32.34811,0 58.57143,20.46698 58.57143,45.71428 z"
       transform="matrix(0.1707317,0,0,0.21874999,149.65854,338.46893)" />
    <path
       sodipodi:type="arc"
       style="fill:#0000ba;fill-opacity:0.69230772;stroke:none"
       id="path6104-2-2-56-4-1"
       sodipodi:cx="164.28572"
       sodipodi:cy="280.93362"
       sodipodi:rx="58.57143"
       sodipodi:ry="45.714287"
       d="m 222.85715,280.93362 c 0,25.24731 -26.22332,45.71429 -58.57143,45.71429 -32.34811,0 -58.57143,-20.46698 -58.57143,-45.71429 0,-25.2473 26.22332,-45.71428 58.57143,-45.71428 32.34811,0 58.57143,20.46698 58.57143,45.71428 z"
       transform="matrix(0.1707317,0,0,0.21874999,126.82927,232.37137)" />
    <path
       sodipodi:type="arc"
       style="fill:#0000ba;fill-opacity:0.69230772;stroke:none"
       id="path6104-2-2-56-4-5"
       sodipodi:cx="164.28572"
       sodipodi:cy="280.93362"
       sodipodi:rx="58.57143"
       sodipodi:ry="45.714287"
       d="m 222.85715,280.93362 c 0,25.24731 -26.22332,45.71429 -58.57143,45.71429 -32.34811,0 -58.57143,-20.46698 -58.57143,-45.71429 0,-25.2473 26.22332,-45.71428 58.57143,-45.71428 32.34811,0 58.57143,20.46698 58.57143,45.71428 z"
       transform="matrix(0.1707317,0,0,0.21874999,220.73171,277.49332)" />
    <path
       sodipodi:type="arc"
       style="fill:#da8c20;fill-opacity:0.69230772;stroke:none"
       id="path6104-2-2-56-4-4"
       sodipodi:cx="164.28572"
       sodipodi:cy="280.93362"
       sodipodi:rx="58.57143"
       sodipodi:ry="45.714287"
       d="m 222.85715,280.93362 c 0,25.24731 -26.22332,45.71429 -58.57143,45.71429 -32.34811,0 -58.57143,-20.46698 -58.57143,-45.71429 0,-25.2473 26.22332,-45.71428 58.57143,-45.71428 32.34811,0 58.57143,20.46698 58.57143,45.71428 z"
       transform="matrix(0.1707317,0,0,0.21874999,142.43902,289.786)" />
    <path
       sodipodi:type="arc"
       style="fill:#da8c20;fill-opacity:0.69230772;stroke:none"
       id="path6104-2-2-56-4-4-0"
       sodipodi:cx="164.28572"
       sodipodi:cy="280.93362"
       sodipodi:rx="58.57143"
       sodipodi:ry="45.714287"
       d="m 222.85715,280.93362 c 0,25.24731 -26.22332,45.71429 -58.57143,45.71429 -32.34811,0 -58.57143,-20.46698 -58.57143,-45.71429 0,-25.2473 26.22332,-45.71428 58.57143,-45.71428 32.34811,0 58.57143,20.46698 58.57143,45.71428 z"
       transform="matrix(0.1707317,0,0,0.21874999,173.60976,278.27381)" />
    <path
       sodipodi:type="arc"
       style="fill:#da8c20;fill-opacity:0.69230772;stroke:none"
       id="path6104-2-2-56-4-4-2"
       sodipodi:cx="164.28572"
       sodipodi:cy="280.93362"
       sodipodi:rx="58.57143"
       sodipodi:ry="45.714287"
       d="m 222.85715,280.93362 c 0,25.24731 -26.22332,45.71429 -58.57143,45.71429 -32.34811,0 -58.57143,-20.46698 -58.57143,-45.71429 0,-25.2473 26.22332,-45.71428 58.57143,-45.71428 32.34811,0 58.57143,20.46698 58.57143,45.71428 z"
       transform="matrix(0.1707317,0,0,0.21874999,166.29268,201.73722)" />
    <path
       sodipodi:type="arc"
       style="fill:#000000;fill-opacity:0.28846154;stroke:none"
       id="path6104-0-6-0"
       sodipodi:cx="164.28572"
       sodipodi:cy="280.93362"
       sodipodi:rx="58.57143"
       sodipodi:ry="45.714287"
       d="m 222.85715,280.93362 c 0,25.24731 -26.22332,45.71429 -58.57143,45.71429 -32.34811,0 -58.57143,-20.46698 -58.57143,-45.71429 0,-25.2473 26.22332,-45.71428 58.57143,-45.71428 32.34811,0 58.57143,20.46698 58.57143,45.71428 z"
       transform="matrix(0.1707317,0,0,0.21874999,235.31707,318.95674)" />
  </g>
</svg>
